<?xml version="1.0" encoding="iso-8859-1"?>
<!-- Uploaded to: SVG Repo, www.svgrepo.com, Generator: SVG Repo Mixer Tools -->
<svg version="1.1" id="Layer_1" xmlns="http://www.w3.org/2000/svg" xmlns:xlink="http://www.w3.org/1999/xlink" 
	 viewBox="0 0 512 512" xml:space="preserve">
<circle style="fill:#8AD5DD;" cx="256" cy="256" r="256"/>
<polygon style="fill:#FFFFFF;" points="115,68 115,444 353.92,444 353.92,400.92 397,400.92 397,68 "/>
<polygon style="fill:#E0E0E0;" points="353.92,444 353.92,400.92 397,400.92 "/>
<rect x="194.976" y="218.08" style="fill:#DB2B42;" width="20.344" height="55.64"/>
<g>
	<rect x="161.04" y="240.8" style="fill:#2D2D2D;" width="20.344" height="32.888"/>
	<rect x="228.88" y="187.168" style="fill:#2D2D2D;" width="20.344" height="86.552"/>
</g>
<rect x="262.784" y="131.528" style="fill:#DB2B42;" width="20.344" height="142.192"/>
<rect x="296.72" y="160.24" style="fill:#2D2D2D;" width="20.344" height="113.504"/>
<rect x="330.56" y="205.712" style="fill:#DB2B42;" width="20.344" height="68"/>
<g>
	<rect x="159.824" y="311.016" style="fill:#E0E0E0;" width="189.848" height="7.832"/>
	<rect x="159.824" y="331.624" style="fill:#E0E0E0;" width="189.848" height="7.832"/>
	<rect x="159.824" y="352.24" style="fill:#E0E0E0;" width="189.848" height="7.832"/>
	<rect x="159.824" y="372.84" style="fill:#E0E0E0;" width="189.848" height="7.832"/>
</g>
</svg>